# xmcd
#
# Track frame offsets:
# 150
# 3813
# 18636
# 36570
# 54666
# 73608
# 94043
# 113641
# 131520
# 154890
# 178336
# 194417
#
# Disc length: 2723 seconds
#
#
# Revision: 0
# Processed by: cddbd v1.5.2PL0 Copyright (c) Steve Scherf et al.
# Submitted via: FreeRIP 2.951 
#
DISCID=a40aa10c
DTITLE=Magnapasta - I grandi cambiamenti
DYEAR=2006
DGENRE=
TTITLE0=Prologo
TTITLE1=Non e' con me
TTITLE2=I grandi cambiamenti
TTITLE3=La palta
TTITLE4=Gli anni son volati
TTITLE5=Riflessioni
TTITLE6=Senza sape'
TTITLE7=Simme briganti
TTITLE8=Rumbalsaltango
TTITLE9=Terra nostra
TTITLE10=Freve
TTITLE11=Chi ni si tu
EXTD=
EXTT0=
EXTT1=
EXTT2=
EXTT3=
EXTT4=
EXTT5=
EXTT6=
EXTT7=
EXTT8=
EXTT9=
EXTT10=
EXTT11=
PLAYORDER=
